<svg width="344" height="93" viewBox="0 0 344 93" fill="none" xmlns="http://www.w3.org/2000/svg">
<g filter="url(#filter0_d_62_90)">
<path d="M51.1281 12.1929V40.5487L48.3818 41.5334V11.6851C49.2126 11.7621 50.1434 11.9467 51.1281 12.1929Z" fill="#E0E3E1"/>
<path d="M51.1281 47.1107V72.6201L48.3818 74.3356V48.1107L51.1281 47.1107Z" fill="#E0E3E1"/>
<path d="M70.4064 29.0017V56.9113C70.4064 57.4652 70.3525 57.9576 70.2756 58.4114C69.9525 60.1039 68.8601 61.5655 67.3985 62.481L51.1281 72.6201V47.1107L62.4443 43.0104C67.3292 40.9795 65.6291 35.3483 65.6291 35.3483L51.1281 40.5487V12.1929C55.8746 13.3776 61.7288 16.147 61.7288 16.147C70.6371 20.7088 70.4064 29.0017 70.4064 29.0017Z" fill="white"/>
<path d="M45.1892 11.6851V41.5257L29.1574 35.7791C29.1574 35.7791 27.8034 37.2715 28.9189 39.7255C22.4569 34.2713 19.8413 27.9709 18.8105 23.2167C18.8105 23.209 18.8105 23.209 18.8105 23.2013C18.7413 21.9935 18.9644 21.2935 18.9644 21.2935C24.6878 5.9309 43.0045 4 43.0045 4C39.7889 6.1463 41.4198 8.4003 41.4198 8.4003C41.4198 8.4003 42.1813 9.70809 43.7661 10.3389C45.3431 10.962 45.1892 11.6851 45.1892 11.6851Z" fill="url(#paint0_linear_62_90)"/>
<path d="M45.1892 48.1107C41.5505 48.6339 31.1344 48.4338 31.1344 48.4338C19.1567 47.4568 12.5793 39.9025 12.5793 39.9025C12.5793 39.9025 12.5793 39.8948 12.5716 39.8948C3.27864 26.6169 18.2412 15.8854 18.2412 15.8854C18.2412 15.8854 17.8796 18.9087 18.8028 23.2013C18.8028 23.209 18.8028 23.209 18.8028 23.2167C19.8336 27.9709 22.4492 34.2713 28.9112 39.7255V39.7332C32.7884 43.0027 38.0503 45.9721 45.1892 48.1107Z" fill="url(#paint1_linear_62_90)"/>
<path d="M45.1892 48.1107V69.166C45.1892 71.2816 43.1276 72.4355 41.2582 71.8124C38.8273 70.9892 36.4733 69.9584 34.1731 68.8045C29.4882 66.4582 24.9417 63.8118 20.4568 61.1039C4.23257 51.2956 8.50979 35.9022 8.50979 35.9022C9.96373 38.8716 12.4177 39.8409 12.5716 39.8948C12.5793 39.8948 12.5793 39.9025 12.5793 39.9025C12.5793 39.9025 19.1567 47.4568 31.1267 48.4338C31.1344 48.4261 41.5505 48.6338 45.1892 48.1107Z" fill="url(#paint2_linear_62_90)"/>
<path d="M76.2068 26.5015V59.2192L73.7989 57.7729V28.8402C73.7989 28.8402 73.5527 26.9631 76.2068 26.5015Z" fill="#E0E3E1"/>
<path d="M86.6536 33.5943C86.6536 37.9562 86.6536 51.7571 86.6536 51.7571C86.6536 51.7571 86.7229 55.2497 83.1611 57.2421L81.161 58.3961C81.161 58.3961 79.9763 59.0653 79.3454 60.8501C78.7069 62.6425 76.9837 64.9888 76.9837 64.9888L73.8912 68.9583C73.8912 68.9583 74.1759 70.2661 73.3912 71.0431L62.7905 80.5668C62.7905 80.5668 61.9212 81.0745 60.6288 80.5668L56.8054 75.8896C56.8054 75.8896 56.0592 74.9049 58.6286 73.1509C61.198 71.397 68.5909 66.9736 68.5909 66.9736C68.5909 66.9736 69.5448 66.1735 71.5449 66.4658L72.2911 66.6274C72.2911 66.6274 75.5529 61.3578 76.2375 59.2423L76.2068 59.2192V26.5015C76.3375 26.4785 76.4606 26.4631 76.6068 26.4477C76.6068 26.4477 74.9836 17.5009 62.852 10.9389C62.852 10.9389 52.7205 5.77704 50.0127 5.23854C50.0127 5.23854 49.4126 4.94622 49.4665 4.5308C49.5203 4.11539 50.4973 4.33079 50.4973 4.33079C54.2283 5.01545 62.275 6.92328 69.1909 11.5082C78.5608 17.7086 80.1609 23.4398 80.1609 23.4398L81.0763 26.6939C81.0763 26.6939 86.6536 29.2248 86.6536 33.5943Z" fill="white"/>
<path d="M130.995 31.6942C131.464 31.6942 131.695 31.9173 131.695 32.3635V35.2714C131.695 35.7176 131.464 35.9407 130.995 35.9407H117.725C116.933 35.9407 116.271 36.0099 115.756 36.1407C115.233 36.2715 114.825 36.4945 114.517 36.81C114.209 37.1254 113.994 37.5562 113.863 38.0947C113.732 38.6332 113.663 39.3024 113.663 40.0948V40.7102H130.849C131.295 40.7102 131.518 40.9333 131.518 41.3795V43.795C131.518 44.2412 131.295 44.4643 130.849 44.4643H113.663V52.411C113.663 52.8572 113.44 53.0803 112.994 53.0803H109.694C109.224 53.0803 108.994 52.8572 108.994 52.411V39.764C108.994 38.2947 109.155 37.0561 109.471 36.033C109.786 35.0175 110.286 34.1867 110.971 33.5405C111.655 32.902 112.532 32.4327 113.617 32.1327C114.694 31.8404 116.01 31.6865 117.564 31.6865H130.995V31.6942Z" fill="url(#paint3_linear_62_90)"/>
<path d="M155.12 31.6942C157.466 31.6942 159.143 32.225 160.166 33.2866C161.182 34.3482 161.697 35.9176 161.697 37.9946V39.7409C161.697 41.4949 161.343 42.8796 160.628 43.8951C159.913 44.9182 158.751 45.5644 157.143 45.849L162.374 52.3341C162.474 52.4341 162.505 52.588 162.467 52.7957C162.428 53.0034 162.259 53.1034 161.974 53.1034H158.028C157.766 53.1034 157.582 53.0726 157.474 53.0111C157.366 52.9495 157.266 52.8495 157.166 52.7034L152.335 46.3414H142.458V52.4264C142.458 52.8726 142.234 53.0957 141.788 53.0957H138.488C138.019 53.0957 137.788 52.8726 137.788 52.4264V32.6097C137.788 31.9942 138.096 31.6942 138.703 31.6942H155.12ZM142.458 42.6104H154.166C155.205 42.6104 155.943 42.3873 156.366 41.9411C156.797 41.4949 157.005 40.8102 157.005 39.8948V38.6101C157.005 37.6946 156.789 37.01 156.366 36.5638C155.935 36.1176 155.205 35.8945 154.166 35.8945H142.858C142.596 35.8945 142.458 36.0176 142.458 36.2638V42.6104Z" fill="url(#paint4_linear_62_90)"/>
<path d="M182.083 31.6942C182.86 31.6942 183.514 31.8558 184.037 32.1712C184.568 32.4866 185.084 33.102 185.599 34.0175L195.715 52.3956C195.815 52.6033 195.838 52.7649 195.792 52.9034C195.738 53.0341 195.592 53.1034 195.346 53.1034H191.461C191.115 53.1034 190.884 52.9726 190.761 52.7034L188.591 48.7569H174.221L172.113 52.7034C171.967 52.9649 171.736 53.1034 171.413 53.1034H167.436C167.175 53.1034 167.013 53.0341 166.959 52.9034C166.905 52.7726 166.936 52.6033 167.036 52.3956L177.068 34.0175C177.575 33.102 178.075 32.4866 178.568 32.1712C179.06 31.8558 179.629 31.6942 180.283 31.6942H182.083ZM176.152 45.2105H186.668L181.806 36.2484C181.722 36.1022 181.614 36.033 181.468 36.033H181.283C181.137 36.033 181.029 36.1022 180.945 36.2484L176.152 45.2105Z" fill="url(#paint5_linear_62_90)"/>
<path d="M205.385 31.6942C205.831 31.6942 206.054 31.9173 206.054 32.3635V40.4948H210.362C210.855 40.4948 211.262 40.4794 211.585 40.4487C211.908 40.4179 212.201 40.3487 212.439 40.2487C212.678 40.1486 212.909 40.0025 213.109 39.8179C213.309 39.6332 213.524 39.4024 213.747 39.1178L219.009 32.0865C219.109 31.9404 219.209 31.8404 219.317 31.7788C219.417 31.7173 219.609 31.6865 219.894 31.6865H223.686C223.948 31.6865 224.109 31.7711 224.163 31.9481C224.217 32.125 224.186 32.2789 224.086 32.425L218.155 40.1025C217.809 40.5718 217.486 40.9718 217.193 41.2949C216.901 41.618 216.609 41.9026 216.324 42.1488C217.116 42.6411 217.893 43.3719 218.647 44.3489L224.917 52.2956C225.002 52.3956 225.032 52.5572 225.009 52.7726C224.986 52.988 224.825 53.0957 224.517 53.0957H220.601C220.34 53.0957 220.155 53.0649 220.047 53.0034C219.947 52.9418 219.84 52.8418 219.74 52.6957L214.116 45.4182C213.709 44.8874 213.27 44.5259 212.801 44.3336C212.332 44.1412 211.632 44.0412 210.693 44.0412H206.047V52.4187C206.047 52.8649 205.823 53.088 205.377 53.088H202.077C201.608 53.088 201.377 52.8649 201.377 52.4187V32.3712C201.377 31.925 201.608 31.7019 202.077 31.7019H205.385V31.6942Z" fill="url(#paint6_linear_62_90)"/>
<path d="M251.734 31.6942C252.18 31.6942 252.404 31.9173 252.404 32.3635V35.356C252.404 35.8253 252.18 36.0561 251.734 36.0561H238.126C237.333 36.0561 236.672 36.1253 236.156 36.2561C235.633 36.3868 235.225 36.6099 234.918 36.9253C234.61 37.2407 234.395 37.6639 234.256 38.1947C234.125 38.7255 234.056 39.3947 234.056 40.2102V44.5489C234.056 45.3644 234.125 46.0414 234.256 46.5799C234.387 47.1184 234.61 47.5492 234.918 47.8646C235.225 48.18 235.633 48.4031 236.156 48.5338C236.679 48.6646 237.333 48.7339 238.126 48.7339H251.734C252.18 48.7339 252.404 48.9569 252.404 49.4031V52.3956C252.404 52.8418 252.18 53.0649 251.734 53.0649H237.941C236.395 53.0649 235.079 52.9188 233.995 52.6341C232.918 52.3495 232.033 51.8879 231.348 51.2417C230.664 50.6032 230.164 49.7647 229.848 48.7339C229.533 47.703 229.371 46.4568 229.371 44.9874V39.7255C229.371 38.2562 229.525 37.0177 229.848 35.9945C230.164 34.9791 230.664 34.1482 231.348 33.502C232.033 32.8635 232.91 32.3943 233.995 32.0942C235.072 31.8019 236.387 31.6481 237.941 31.6481H251.734V31.6942Z" fill="url(#paint7_linear_62_90)"/>
<path d="M262.743 31.6942C263.189 31.6942 263.412 31.9173 263.412 32.3635V52.4187C263.412 52.8649 263.189 53.088 262.743 53.088H259.443C258.973 53.088 258.742 52.8649 258.742 52.4187V32.3712C258.742 31.925 258.973 31.7019 259.443 31.7019H262.743V31.6942Z" fill="url(#paint8_linear_62_90)"/>
<path d="M274.482 31.6942C274.928 31.6942 275.151 31.9173 275.151 32.3635V44.5643C275.151 45.3798 275.221 46.0567 275.351 46.5952C275.482 47.1337 275.705 47.5645 276.005 47.8799C276.313 48.1954 276.721 48.4184 277.244 48.5492C277.767 48.68 278.421 48.7492 279.213 48.7492H287.683C288.475 48.7492 289.137 48.68 289.652 48.5492C290.175 48.4184 290.583 48.1954 290.891 47.8799C291.199 47.5645 291.414 47.1337 291.529 46.5952C291.652 46.0567 291.714 45.3798 291.714 44.5643V32.3712C291.714 31.925 291.937 31.7019 292.383 31.7019H295.714C296.16 31.7019 296.384 31.925 296.384 32.3712V45.0259C296.384 46.4952 296.23 47.7415 295.922 48.7723C295.614 49.8032 295.122 50.634 294.437 51.2802C293.753 51.9187 292.868 52.388 291.776 52.6726C290.683 52.9572 289.368 53.1034 287.814 53.1034H279.005C277.459 53.1034 276.144 52.9572 275.059 52.6726C273.974 52.388 273.097 51.9264 272.413 51.2802C271.728 50.6417 271.228 49.8032 270.913 48.7723C270.597 47.7415 270.436 46.4952 270.436 45.0259V32.3712C270.436 31.925 270.666 31.7019 271.136 31.7019H274.482V31.6942Z" fill="url(#paint9_linear_62_90)"/>
<path d="M309.523 31.6942C309.969 31.6942 310.361 31.725 310.684 31.7865C311.008 31.8481 311.3 31.9635 311.538 32.1404C311.785 32.3173 312 32.5481 312.192 32.8404C312.385 33.1328 312.585 33.5251 312.792 34.0175L319.154 48.6954C319.239 48.88 319.377 48.9723 319.585 48.9723H319.954C320.154 48.9723 320.301 48.88 320.385 48.6954L326.747 34.0175C326.955 33.5251 327.147 33.1328 327.347 32.8404C327.539 32.5481 327.763 32.3096 328.009 32.1404C328.255 31.9635 328.532 31.8481 328.847 31.7865C329.163 31.725 329.547 31.6942 329.994 31.6942H333.263C334.325 31.6942 335.04 31.9327 335.402 32.4096C335.771 32.8866 335.955 33.7097 335.955 34.8714V52.4187C335.955 52.8649 335.725 53.088 335.255 53.088H332.14C331.694 53.088 331.471 52.8649 331.471 52.4187V36.4638C331.471 36.2638 331.386 36.1561 331.224 36.1561H330.947C330.74 36.1561 330.609 36.2407 330.547 36.4022L324.37 50.1032C324.124 50.6571 323.878 51.1186 323.624 51.4956C323.37 51.8725 323.093 52.1802 322.801 52.4264C322.508 52.6726 322.17 52.8418 321.793 52.9495C321.416 53.0495 320.97 53.1034 320.462 53.1034H318.993C318.485 53.1034 318.039 53.0495 317.662 52.9495C317.285 52.8495 316.946 52.6726 316.654 52.4264C316.362 52.1802 316.085 51.8725 315.831 51.4956C315.577 51.1186 315.323 50.6571 315.085 50.1032L308.907 36.4022C308.846 36.2407 308.715 36.1561 308.507 36.1561H308.23C308.069 36.1561 307.984 36.2561 307.984 36.4638V52.4264C307.984 52.8726 307.761 53.0957 307.315 53.0957H304.176C303.707 53.0957 303.476 52.8726 303.476 52.4264V34.8714C303.476 33.7097 303.661 32.8866 304.03 32.4096C304.399 31.9327 305.123 31.6942 306.2 31.6942H309.523Z" fill="url(#paint10_linear_62_90)"/>
</g>
<defs>
<filter id="filter0_d_62_90" x="0" y="0" width="343.955" height="92.7925" filterUnits="userSpaceOnUse" color-interpolation-filters="sRGB">
<feFlood flood-opacity="0" result="BackgroundImageFix"/>
<feColorMatrix in="SourceAlpha" type="matrix" values="0 0 0 0 0 0 0 0 0 0 0 0 0 0 0 0 0 0 127 0" result="hardAlpha"/>
<feOffset dy="4"/>
<feGaussianBlur stdDeviation="4"/>
<feComposite in2="hardAlpha" operator="out"/>
<feColorMatrix type="matrix" values="0 0 0 0 0 0 0 0 0 0 0 0 0 0 0 0 0 0 0.55 0"/>
<feBlend mode="normal" in2="BackgroundImageFix" result="effect1_dropShadow_62_90"/>
<feBlend mode="normal" in="SourceGraphic" in2="effect1_dropShadow_62_90" result="shape"/>
</filter>
<linearGradient id="paint0_linear_62_90" x1="18.7912" y1="22.7647" x2="45.1929" y2="22.7647" gradientUnits="userSpaceOnUse">
<stop stop-color="#FAA523"/>
<stop offset="0.1461" stop-color="#F49420"/>
<stop offset="0.5144" stop-color="#E86F1A"/>
<stop offset="0.8121" stop-color="#E05816"/>
<stop offset="1" stop-color="#DD5015"/>
</linearGradient>
<linearGradient id="paint1_linear_62_90" x1="27.3608" y1="48.4681" x2="27.3608" y2="15.8843" gradientUnits="userSpaceOnUse">
<stop stop-color="#FAA523"/>
<stop offset="1" stop-color="#DD5015"/>
</linearGradient>
<linearGradient id="paint2_linear_62_90" x1="8.00206" y1="53.9392" x2="45.1888" y2="53.9392" gradientUnits="userSpaceOnUse">
<stop stop-color="#FAA523"/>
<stop offset="0.6543" stop-color="#E66A19"/>
<stop offset="1" stop-color="#DD5015"/>
</linearGradient>
<linearGradient id="paint3_linear_62_90" x1="107.225" y1="43.5119" x2="343.567" y2="7.57686" gradientUnits="userSpaceOnUse">
<stop stop-color="#FAA523"/>
<stop offset="0.1461" stop-color="#F49420"/>
<stop offset="0.5144" stop-color="#E86F1A"/>
<stop offset="0.8121" stop-color="#E05816"/>
<stop offset="1" stop-color="#DD5015"/>
</linearGradient>
<linearGradient id="paint4_linear_62_90" x1="108.033" y1="48.8246" x2="344.374" y2="12.8896" gradientUnits="userSpaceOnUse">
<stop stop-color="#FAA523"/>
<stop offset="0.1461" stop-color="#F49420"/>
<stop offset="0.5144" stop-color="#E86F1A"/>
<stop offset="0.8121" stop-color="#E05816"/>
<stop offset="1" stop-color="#DD5015"/>
</linearGradient>
<linearGradient id="paint5_linear_62_90" x1="108.878" y1="54.3838" x2="345.22" y2="18.4488" gradientUnits="userSpaceOnUse">
<stop stop-color="#FAA523"/>
<stop offset="0.1461" stop-color="#F49420"/>
<stop offset="0.5144" stop-color="#E86F1A"/>
<stop offset="0.8121" stop-color="#E05816"/>
<stop offset="1" stop-color="#DD5015"/>
</linearGradient>
<linearGradient id="paint6_linear_62_90" x1="109.456" y1="58.1849" x2="345.798" y2="22.2499" gradientUnits="userSpaceOnUse">
<stop stop-color="#FAA523"/>
<stop offset="0.1461" stop-color="#F49420"/>
<stop offset="0.5144" stop-color="#E86F1A"/>
<stop offset="0.8121" stop-color="#E05816"/>
<stop offset="1" stop-color="#DD5015"/>
</linearGradient>
<linearGradient id="paint7_linear_62_90" x1="110.153" y1="62.7687" x2="346.495" y2="26.8336" gradientUnits="userSpaceOnUse">
<stop stop-color="#FAA523"/>
<stop offset="0.1461" stop-color="#F49420"/>
<stop offset="0.5144" stop-color="#E86F1A"/>
<stop offset="0.8121" stop-color="#E05816"/>
<stop offset="1" stop-color="#DD5015"/>
</linearGradient>
<linearGradient id="paint8_linear_62_90" x1="110.536" y1="65.2873" x2="346.878" y2="29.3522" gradientUnits="userSpaceOnUse">
<stop stop-color="#FAA523"/>
<stop offset="0.1461" stop-color="#F49420"/>
<stop offset="0.5144" stop-color="#E86F1A"/>
<stop offset="0.8121" stop-color="#E05816"/>
<stop offset="1" stop-color="#DD5015"/>
</linearGradient>
<linearGradient id="paint9_linear_62_90" x1="110.969" y1="68.1328" x2="347.31" y2="32.1978" gradientUnits="userSpaceOnUse">
<stop stop-color="#FAA523"/>
<stop offset="0.1461" stop-color="#F49420"/>
<stop offset="0.5144" stop-color="#E86F1A"/>
<stop offset="0.8121" stop-color="#E05816"/>
<stop offset="1" stop-color="#DD5015"/>
</linearGradient>
<linearGradient id="paint10_linear_62_90" x1="111.879" y1="74.1218" x2="348.221" y2="38.1868" gradientUnits="userSpaceOnUse">
<stop stop-color="#FAA523"/>
<stop offset="0.1461" stop-color="#F49420"/>
<stop offset="0.5144" stop-color="#E86F1A"/>
<stop offset="0.8121" stop-color="#E05816"/>
<stop offset="1" stop-color="#DD5015"/>
</linearGradient>
</defs>
</svg>
