<svg width="287" height="84" viewBox="0 0 287 84" fill="none" xmlns="http://www.w3.org/2000/svg">
<path fill-rule="evenodd" clip-rule="evenodd" d="M228.349 23.125C227.487 23.3528 222.223 21.5468 220.756 21.1533C214.453 19.4624 204.313 17.8395 197.663 17.6465C197.455 17.6404 196.039 17.6837 195.932 17.4252C195.904 17.3563 195.825 17.3773 195.78 17.3415C195.331 17.6534 195.973 17.4792 194.996 17.5552C194.671 17.5804 194.107 17.5329 193.765 17.52C190.862 17.4086 179.824 17.6813 178.327 18.3446C179.048 18.6138 186.223 19.208 187.798 19.4353C204.665 21.8671 221.065 27.6082 235.667 36.0956C236.907 36.8163 241.705 39.5761 242.274 40.2533C241.256 41.1868 238.739 42.4575 237.387 43.2679C217.862 54.9697 190.382 61.0633 167.836 63.6006C160.703 64.4032 152.201 64.9432 144.93 65.1489C142.365 65.2211 139.437 65.1411 136.932 65.3708C137.458 65.3152 143.07 66.1228 144.364 66.2456C162.994 68.0151 182.675 67.9382 201.118 65.2445C215.493 63.1448 228.131 59.6973 240.742 53.3973C244.878 51.3312 248.109 49.1088 251.524 46.8124C252.753 47.3892 256.491 50.6371 257.845 51.7297C258.351 52.1375 258.524 52.38 259.043 52.7786L261.429 54.8893C262.309 55.8336 262.924 56.2202 263.803 57.0158C264.578 57.7179 265.252 58.537 266.037 59.2734L269.363 62.6961C269.789 63.1549 270.203 63.4165 270.646 63.8604L274.893 68.6069C278.701 73.2605 281.178 76.2379 284.683 81.3128C285.029 81.8134 286.104 83.6348 286.521 84C285.96 81.6243 282.646 73.8785 281.487 71.4097C276.193 60.1362 272.624 55.946 265.6 47.4241L262.209 44.0699C261.786 43.6662 261.58 43.3156 261.155 42.8806C260.341 42.0474 259.545 41.8051 258.777 40.6629L262.248 36.8798C265.876 32.7486 268.424 28.62 270.945 23.4904C274.069 17.1359 276.466 7.90701 276.904 0L274.62 5.4813C271.927 11.2628 268.235 16.8319 264.259 21.4986L250.664 34.4422L245.549 31.2985C240.234 28.2398 236.876 26.6331 231.158 24.4405C230.582 24.2194 230.174 24.0547 229.665 23.889C229.527 23.8438 228.938 23.6701 228.883 23.6463C227.997 23.2649 228.311 23.7317 228.349 23.125Z" fill="white"/>
<path fill-rule="evenodd" clip-rule="evenodd" d="M148.298 16.3012C148.893 16.4983 152.455 18.3768 152.84 18.9078C151.765 19.5281 150.066 20.0825 148.876 20.5836C146.444 21.6075 146.896 20.9439 146.126 23.5157C145.519 25.547 143.716 30.5634 143.561 32.2093L187.477 32.1837L189.586 25.2483L156.641 25.2118L170.818 19.1666C169.848 18.1912 161.353 14.0068 160.145 13.1085C159.897 12.9243 159.938 12.9623 159.776 12.7766L193.35 12.7623L195.469 5.77077L151.484 5.77599L148.298 16.3012ZM95.0972 32.1992L104.789 32.2167L110.706 12.8014C117.444 12.5122 127.883 12.8317 135.198 12.7552C134.535 15.6351 134.102 15.1426 131.441 16.2383C130.341 16.6914 127.095 18.1898 126.172 18.3287L111.538 18.364C110.95 19.8679 109.709 23.7526 109.442 25.3596C114.181 25.2776 118.985 25.3495 123.731 25.3495C129.33 25.3495 129.079 24.9515 135.017 22.4139C136.746 21.6748 138.326 21.0338 140.033 20.3044C144.158 18.5408 142.651 20.1602 145.366 11.4401C145.882 9.786 146.726 7.42406 147.02 5.75694L103.104 5.7645L95.0972 32.1992ZM196.314 18.1189C196.36 18.1542 196.438 18.1335 196.467 18.2016C196.574 18.457 197.989 18.4142 198.196 18.4202C204.841 18.611 214.973 20.2147 221.272 21.8856C222.738 22.2745 227.998 24.0592 228.859 23.834C230.736 23.0392 232.732 22.257 234.643 21.5023L238.995 19.747C239.882 19.3942 239.831 19.5525 240.134 18.6487C240.826 16.5779 241.424 14.3689 242.047 12.2604C242.641 10.2515 243.631 7.69502 243.945 5.75342L200.009 5.7649L196.314 18.1189ZM53.7472 12.4894L64.8068 21.9228C65.157 22.2419 65.3751 22.3542 65.7114 22.6496C66.3252 23.1889 66.977 23.6907 67.411 24.1173L65.0221 32.17L74.7206 32.2034C75.2445 30.5946 75.6966 28.9868 76.1972 27.3884C77.001 24.8227 76.4573 24.7188 78.7502 23.4516L95.1026 14.1811C97.3839 12.8561 97.4372 13.52 98.2337 10.8175C98.6666 9.34949 99.4895 7.21494 99.7043 5.75381L90.0381 5.75929C88.5299 10.3877 90.302 8.45768 82.9577 12.6519C81.4921 13.4888 74.798 17.488 73.6947 17.7245C73.2562 17.2022 73.2717 17.1641 72.6965 16.7299L64.3746 9.6926L65.5005 5.7722L55.7744 5.75629L53.7472 12.4894ZM39.2434 15.4659L17.2393 15.5144L15.0841 22.4412L37.0887 22.5019L34.1976 32.1764L43.9087 32.2146L51.8888 5.83143L42.1721 5.76294L39.2434 15.4659ZM0 32.1945L9.64614 32.2151L17.6321 5.82308L8.09009 5.76424C7.86483 6.13618 0.120587 31.2184 0 32.1945ZM206.004 18.3647C211.276 18.3459 216.56 18.3411 221.832 18.363C224.729 18.375 227.624 16.8825 230.666 15.5311C231.669 15.0855 231.714 14.6988 232.118 12.7564L207.963 12.7645C207.267 12.9567 206.126 17.7682 206.004 18.3647ZM192.035 32.1879L192.871 32.2192L201.029 32.217L201.746 32.1787L203.758 25.5946C202.571 24.8784 196.409 23.6126 194.68 23.3652L192.035 32.1879Z" fill="white"/>
</svg>
