<svg width="21" height="40" viewBox="0 0 21 40" fill="none" xmlns="http://www.w3.org/2000/svg">
<path d="M14.7881 22.7297C14.7881 23.482 15.4064 24.0916 16.1695 24.0916C16.9322 24.0916 17.5509 23.482 17.5509 22.7297C17.5509 21.9774 16.9322 21.3677 16.1695 21.3677C15.4065 21.3677 14.7881 21.9773 14.7881 22.7297Z" fill="#FBFBFB"/>
<path d="M4.05393 10.7567C2.84908 13.4409 2.18368 14.8708 2.35599 16.8005C2.52865 18.7298 3.24805 20.0351 4.91771 21.3684C6.58694 22.7024 8.74554 20.829 8.71604 19.8928C8.48594 18.2753 7.21941 18.9853 6.61566 19.467C6.55823 15.4661 9.41163 14.203 10.6735 13.7923C9.60922 14.984 9.78147 16.6581 10.2417 17.708C10.7015 18.7577 12.4282 18.786 13.666 16.9987C14.9034 15.2109 15.1339 13.4236 14.3567 12.3456C13.5795 11.2675 12.7459 11.7608 12.0263 12.1579C12.944 11.0746 13.89 10.1241 14.9899 7.94759C16.5244 4.91 17.9819 0.68457 17.9819 0.68457V18.4459C16.0538 18.843 14.8195 19.5036 13.9822 20.6307C13.0606 21.8711 12.3417 24.5746 13.7808 26.0211C15.2196 27.4684 16.9175 25.9645 17.6661 25.3401C18.4433 26.2479 19.7668 28.1206 20.026 31.6957C20.2844 35.2712 18.9605 38.1936 17.8092 39.5839C18.0393 37.6829 17.6366 34.4483 15.6507 31.6108C13.6648 28.7733 11.5354 29.0575 10.816 30.022C9.39105 32.348 11.996 35.5551 11.996 35.5551C11.996 35.5551 8.08201 33.3986 6.18274 31.4127C4.28377 29.4264 0.563946 25.5856 0.16847 19.9789C-0.178784 15.0407 1.98207 12.5736 4.05413 10.7571L4.05393 10.7567Z" fill="#FBFBFB"/>
</svg>
