<svg width="30" height="31" viewBox="0 0 30 31" fill="none" xmlns="http://www.w3.org/2000/svg">
<path d="M15.6673 18.2648C15.6673 18.2648 16.8298 16.5108 14.9528 15.786C13.493 15.2222 13.0209 17.2645 13.7117 18.683C14.4031 20.1013 16.1462 20.4145 17.324 19.907C18.5018 19.3996 20.0883 18.0409 20.0568 14.9798C20.0259 11.9194 16.9478 10.456 14.7014 10.456C12.4553 10.456 8.56037 12.7101 8.13642 17.3991C7.71241 22.0872 10.3666 23.7294 12.6516 25.0956C14.9369 26.462 16.7291 27.178 18.0545 27.5003C18.0545 27.5003 15.667 29.5975 10.9787 30.4706C6.29036 31.3444 4.57066 29.8659 2.73363 26.6633C2.73363 26.6633 5.13663 29.1941 7.68123 28.9032C10.2258 28.6119 10.296 26.9997 10.0371 26.0589C9.77816 25.1181 8.08186 23.64 6.78612 25.3424C6.26789 26.0817 6.63293 26.8935 6.97488 27.7835C5.70533 26.9602 4.56374 26.2985 4.2421 23.0133C4.71352 23.2372 6.22106 23.3941 6.50372 22.4311C6.78639 21.4677 5.65573 20.3262 4.35967 21.0647C3.06361 21.8041 3.33884 24.1931 3.38596 25.2682C2.23159 23.7455 1.83128 22.0431 2.7342 18.9373C3.39376 19.3629 4.03769 19.6838 4.80741 19.3255C5.5771 18.9669 5.48287 17.2349 4.58776 16.8167C3.69233 16.3985 2.16888 17.0255 1.63502 18.1157C1.10088 19.2056 1.11648 19.3697 0.755162 20.7583C0.582314 19.1315 0.62943 16.1153 2.85992 14.1293C3.40965 14.7115 3.72348 15.2338 4.69759 15.1893C5.67129 15.1442 6.04788 14.1293 5.57712 13.1289C5.1057 12.1285 3.17413 12.4871 2.65593 12.7407C2.1377 12.9943 1.03854 13.9051 0.0804138 15.1893C0.472595 13.9054 1.01482 12.5248 1.76864 11.4948C2.52246 10.4647 3.77068 9.54559 5.41994 9.3964C4.90171 10.3668 5.01185 11.0537 5.79714 11.5463C6.58274 12.0389 7.63481 11.8897 7.91715 10.8298C8.19982 9.76976 7.65008 8.76967 6.37804 8.35117C5.10601 7.93266 3.69239 7.63462 1.6663 8.35117C2.67156 7.45547 3.84933 6.57466 5.76527 6.06687C7.68121 5.55908 8.98447 5.81299 9.39317 6.06687C8.74952 6.43998 8.41914 7.70906 9.01627 8.32148C9.61281 8.93393 10.7438 9.11278 11.4975 8.21679C12.2513 7.3208 11.7649 5.9476 11.1522 5.21598C10.5397 4.48431 9.42464 3.20069 6.14187 2.99129C7.66532 2.33436 10.0765 2.02741 11.8589 2.51349C13.6413 2.99958 14.7882 3.85046 15.2041 4.55877C14.3242 4.67859 13.6491 5.73827 13.6491 6.41006C13.6491 7.08185 14.7486 8.08217 15.9107 7.54477C17.0732 7.00736 17.3084 6.39518 17.3084 4.78267C17.3078 3.16926 16.8844 1.57307 14.7017 0.15448C16.3783 0.561988 18.2669 1.36367 19.8218 3.08057C21.3765 4.79748 21.345 5.94737 21.345 5.94737C21.345 5.94737 19.5388 5.42479 19.0833 6.99256C18.7695 8.00776 20.3868 9.06776 21.549 8.53036C22.7115 7.99295 22.9468 7.00714 22.9939 5.94714C23.0407 4.88715 23.104 3.66285 22.4916 2.21434C23.5511 3.25771 25.083 5.09594 25.4602 6.81315C25.8371 8.53006 25.2715 10.1423 25.2715 10.1423C25.2715 10.1423 24.3919 9.12683 23.2768 9.87333C22.1621 10.6198 23.1202 11.9337 24.0465 12.2027C24.9729 12.4717 25.7272 11.8892 26.2296 10.9484C26.7322 10.0076 27.0307 9.29113 27.0307 7.02164C27.549 8.14124 28.1143 10.1719 27.549 12.1727C26.9836 14.1735 26.3864 14.5317 26.3864 14.5317C26.3864 14.5317 25.6171 13.6058 24.6121 14.3674C24.0624 14.6809 24.0783 16.1288 25.3347 16.2486C26.5908 16.3685 28.2715 14.4569 29.4967 11.5454C29.3238 14.1583 28.7111 16.6066 26.9521 19.0855C25.1931 21.5641 22.2403 24.2511 20.6071 25.5653C18.77 25.0878 14.1366 23.4305 12.1256 21.161C10.1154 18.8915 10.437 15.8676 11.7325 14.293C13.0285 12.7185 15.5176 12.2326 16.9 13.666C18.5574 15.3842 17.6853 17.3992 15.6673 18.2649L15.6673 18.2648Z" fill="#FBFBFB"/>
</svg>
