<svg width="36" height="35" viewBox="0 0 36 35" fill="none" xmlns="http://www.w3.org/2000/svg">
<path d="M26.2918 25.0033C26.0611 23.815 24.8023 23.5802 23.9422 23.5802C23.5274 23.5802 22.6522 23.4926 22.4984 22.9052C22.6522 22.7435 22.8366 22.5241 22.6365 22.2748C22.4366 22.0252 21.3924 20.8372 21.6228 20.0153C21.8529 19.1938 23.1123 19.1203 23.9415 20.2203C24.7707 21.3207 25.1392 22.4361 25.1392 22.4361L27.3359 20.646C27.3359 20.646 25.7383 19.2819 25.692 18.1813C25.646 17.0809 26.2602 16.5968 27.3359 16.7877C28.4107 16.9786 29.9314 17.9031 30.6995 20.0885V15.4965C30.6995 15.4965 29.3786 15.8631 28.6109 15.1593C27.8428 14.4545 27.8576 13.5601 28.227 12.6505C28.5951 11.741 30.1773 11.3885 32.1124 12.5331L30.6226 9.21787H21.208C21.208 9.21787 22.2525 9.81908 23.1888 11.0516C24.1259 12.2845 23.6657 12.8122 23.2812 12.8854C22.897 12.9589 22.1595 11.7266 21.7293 11.7266C21.3914 11.7266 22.4973 12.6656 22.3133 13.0473C22.236 13.2232 21.5603 12.6951 21.8062 13.2822C22.052 13.8686 22.1041 14.1837 21.699 14.353C21.2073 14.5583 20.455 14.4704 19.9637 13.7515C19.4717 13.0323 20.0705 12.0201 19.0727 11.3602C18.0746 10.6999 16.8152 11.5799 16.124 11.8738C15.4331 12.167 15.0023 12.2254 14.9102 12.6366C14.8182 13.0476 14.7413 13.5314 14.8797 13.6931C15.0335 13.3264 15.7089 12.842 16.0777 13.4143C16.4464 13.9863 15.6786 14.5583 15.156 14.6465C14.6338 14.7347 14.1611 14.4114 14.0813 14.3533C13.7286 14.0969 13.728 13.8689 13.9735 13.2824C14.2193 12.6957 13.5436 13.2234 13.4667 13.0476C13.2826 12.6662 14.3883 11.7269 14.0507 11.7269C13.6205 11.7269 12.8836 12.9597 12.4991 12.8857C12.1149 12.8125 11.6544 12.2845 12.5911 11.0519C13.5282 9.81907 14.5727 9.21815 14.5727 9.21815H5.15805L3.66821 12.5328C5.6037 11.3885 7.18554 11.7407 7.554 12.6502C7.92212 13.5594 7.93789 14.4545 7.1698 15.1589C6.40204 15.8631 5.08118 15.4961 5.08118 15.4961V20.0878C5.84894 17.9022 7.36964 16.9773 8.44471 16.787C9.51946 16.5961 10.1344 17.0802 10.0883 18.1806C10.042 19.281 8.44471 20.6454 8.44471 20.6454L10.6412 22.4355C10.6412 22.4355 11.0099 21.32 11.8391 20.2197C12.6683 19.1197 13.9278 19.1931 14.1585 20.0147C14.3892 20.8362 13.3447 22.0248 13.1445 22.2741C12.9447 22.5234 13.1294 22.7432 13.2826 22.9045C13.1288 23.4913 12.2535 23.5795 11.8388 23.5795C10.9787 23.5795 9.71929 23.8143 9.48921 25.0026C9.2585 26.1909 10.1189 26.6602 10.1189 26.6602C10.1189 26.6599 10.0884 26.2944 10.1653 25.956C10.5035 24.7825 11.3478 24.8857 11.8546 25.0324C12.3617 25.1787 12.3463 25.9127 12.039 26.2646C13.2675 26.3525 13.1446 25.1643 13.1446 25.1643L14.4961 24.5483L9.74666 34.2345C9.74666 34.2345 11.3822 33.2221 13.0066 33.057C14.6309 32.8922 16.2089 33.4974 16.2089 33.4974L17.8905 29.6243L19.5727 33.4974C19.5727 33.4974 21.1507 32.8922 22.7747 33.057C24.3991 33.222 26.0346 34.2345 26.0346 34.2345L21.2846 24.5475L22.6364 25.1635C22.6364 25.1635 22.5138 26.3518 23.7423 26.2638C23.435 25.9122 23.4202 25.1779 23.9267 25.0316C24.4335 24.8853 25.2781 24.782 25.616 25.9552C25.6926 26.2933 25.6621 26.66 25.6621 26.66C25.6621 26.66 26.5219 26.1913 26.2918 25.0027L26.2918 25.0033Z" fill="#FBFBFB"/>
<path d="M17.8904 5.8221L18.8885 7.68537H21.538L17.8904 0.892609L14.243 7.68537H16.8929L17.8904 5.8221Z" fill="#FBFBFB"/>
<path d="M8.75004 23.5476L6.84059 22.1217L0.335861 34.2346H7.67653L8.98844 31.6051H4.43656L8.75004 23.5476Z" fill="#FBFBFB"/>
<path d="M28.941 22.1218L27.0312 23.548L31.3446 31.6054H26.7924L28.1049 34.2349H35.4456L28.941 22.1218Z" fill="#FBFBFB"/>
</svg>
