<svg width="58" height="47" viewBox="0 0 58 47" fill="none" xmlns="http://www.w3.org/2000/svg">
<path d="M58 5.56414C55.8661 6.50877 53.5727 7.14494 51.1657 7.43171C53.6234 5.96416 55.5108 3.63874 56.3977 0.867515C54.0995 2.22662 51.5523 3.21462 48.8408 3.74718C46.6731 1.44104 43.5773 0 40.1553 0C32.4727 0 26.8274 7.14735 28.5626 14.567C18.676 14.073 9.90833 9.34988 4.03825 2.1712C0.92075 7.504 2.4215 14.4803 7.71883 18.013C5.771 17.9503 3.93433 17.4178 2.33208 16.5286C2.20158 22.0252 6.15283 27.1677 11.8755 28.3123C10.2007 28.7653 8.3665 28.8714 6.50083 28.5147C8.01367 33.2282 12.4072 36.6573 17.6175 36.7537C12.615 40.6647 6.31233 42.4118 0 41.6696C5.26592 45.036 11.5227 47 18.241 47C40.3342 47 52.8162 28.3942 52.0622 11.7066C54.3871 10.0318 56.405 7.94258 58 5.56414Z" fill="white"/>
</svg>
